# xmcd
#
# Track frame offsets:
#	151
#	13990
#	28619
#	45826
#
# Disc length: 804 seconds
#
# Revision: 0
# Processed by: cddbd v1.5.2PL0 Copyright (c) Steve Scherf et al.
# Submitted via: audiograbber 1.83.01
#
DISCID=25032204
DTITLE=The Nashville's - Demo
DYEAR=1900
DGENRE=Country
TTITLE0=Act Naturally
TTITLE1=Lonesome Fugitive
TTITLE2=Help Me Make It Through The Night
TTITLE3=Guitar and Cadillacs
EXTD=
EXTT0=
EXTT1=
EXTT2=
EXTT3=
PLAYORDER=
